<svg width="118" height="115" viewBox="0 0 118 115" fill="none" xmlns="http://www.w3.org/2000/svg">
<ellipse cx="58.9316" cy="57.1497" rx="58.9316" ry="57.1497" fill="white" fill-opacity="0.22"/>
<path d="M84.9504 84.5444V77.2915C84.9504 73.4443 83.5525 69.7547 81.0642 67.0343C78.5759 64.3139 75.2011 62.7856 71.6821 62.7856H45.1457C41.6267 62.7856 38.2519 64.3139 35.7636 67.0343C33.2753 69.7547 31.8774 73.4443 31.8774 77.2915V84.5444M71.6821 33.7739C71.6821 41.7852 65.7418 48.2797 58.4139 48.2797C51.0861 48.2797 45.1457 41.7852 45.1457 33.7739C45.1457 25.7625 51.0861 19.268 58.4139 19.268C65.7418 19.268 71.6821 25.7625 71.6821 33.7739Z" stroke="#1E1E1E" stroke-width="4" stroke-linecap="round" stroke-linejoin="round"/>
</svg>
